<svg width="541" height="331" viewBox="0 0 541 331" fill="none" xmlns="http://www.w3.org/2000/svg">
<g clip-path="url(#clip0_46_15)">
<path d="M180.66 71.54C179.263 70.4735 177.524 69.9541 175.771 70.0793C174.018 70.2045 172.371 70.9658 171.14 72.22C168.04 75.22 165.44 77.83 161.14 79.12C157.76 80.17 154.8 78.02 152.33 76C145.44 70.35 136.33 68.9 128.33 73.23C127.466 73.6627 126.625 74.14 125.81 74.66C124.275 71.8408 122.39 69.2267 120.2 66.88C120.2 66.23 120.2 64.96 120.2 64.35C120.2 61.35 120.82 57.45 123.39 55.49C124.72 54.5914 126.285 54.1045 127.89 54.09C130.55 53.92 133.19 53.96 135.83 53.53C140.028 52.8667 143.872 50.7843 146.72 47.63C151.93 41.88 154.72 33.69 154.72 26.01V25.77C154.72 23.9135 153.983 22.133 152.67 20.8203C151.357 19.5075 149.577 18.77 147.72 18.77C145.863 18.77 144.083 19.5075 142.77 20.8203C141.457 22.133 140.72 23.9135 140.72 25.77V25.98C140.72 30.06 139.33 36.22 135.72 38.77C134.199 39.6904 132.434 40.1264 130.66 40.02C121.1 40.09 112.04 43.95 108.21 53.3C107.614 54.6884 107.132 56.1232 106.77 57.59C103.156 56.115 99.3327 55.2174 95.44 54.93C94.06 54.82 92.28 47.86 92.09 46.78C91.7344 45.159 91.8916 43.4676 92.54 41.94C94.08 38.6 97.85 36.79 100.24 34.12C103.554 30.4181 105.394 25.6285 105.41 20.66C105.41 13.91 100.54 -0.0499879 92.11 -0.0399879C90.7538 -0.0320729 89.429 0.369649 88.2968 1.11637C87.1647 1.86309 86.2738 2.92264 85.7325 4.1662C85.1912 5.40977 85.0228 6.78382 85.2479 8.12128C85.4729 9.45875 86.0816 10.702 87 11.7C87.9595 12.7113 88.8232 13.8093 89.58 14.98C90.2227 15.9809 90.7273 17.064 91.08 18.2C91.3187 18.9985 91.4432 19.8267 91.45 20.66C91.45 24.79 87.7 27.39 84.86 29.77C81.3691 32.4471 79.0102 36.337 78.25 40.67C77.36 46.01 78.53 51.82 80.64 56.76C77.3886 57.8332 74.2998 59.3473 71.46 61.26C70.38 61.98 65.88 59.5 64.77 58.88C60.51 56.55 58.57 53.3 59.11 48.46C60.51 36.24 55.72 25.13 43.25 21.38C40.13 20.44 36.43 19.38 33.25 20.63C31.6574 21.3173 30.3766 22.5714 29.6561 24.1493C28.9355 25.7271 28.8264 27.5163 29.35 29.17C30.96 34.3 35.83 33.54 40 34.99C41.7786 35.5418 43.3568 36.602 44.54 38.04C47.65 42.04 44.94 47.5 45.04 52.04C45.25 61.6 52.47 68.53 60.71 72.33C59.1941 74.7031 57.9497 77.239 57 79.89C56.79 80 56.38 80.23 56.17 80.36C50.25 84.13 42.9 85.13 38.39 78.89C34.03 72.89 29.85 68.22 22.02 67.21C16.6311 66.614 11.1917 67.7376 6.48 70.42C3.25 72.23 0.05 75.13 0 78.9C0.0367042 80.622 0.728356 82.2652 1.93412 83.4952C3.13988 84.7251 4.76909 85.4492 6.49 85.52C11.35 85.52 15.26 80.3 20.07 80.93C22.3056 81.3854 24.2813 82.6811 25.59 84.55C27 86.31 28.06 88.33 29.47 90.09C32.451 93.6639 36.585 96.0863 41.16 96.94C45.7174 97.7653 50.4087 97.4423 54.81 96C54.19 96.21 56.67 104.62 56.9 105.29C54.8 111.06 50.23 117.56 43.33 115.47C36.59 113.47 29.92 111.59 23.2 114.98C18.2609 117.607 14.2338 121.668 11.65 126.63C9.24 131.33 8.53 138.9 14.92 140.79C15.5682 140.987 16.2425 141.085 16.92 141.08C22.92 141.08 23.21 135.34 25.63 131.34C26.9 129.24 29.13 126.89 31.77 126.83H31.9C33.9 126.83 36.23 127.92 38.17 128.42C44.17 129.97 49.37 130.93 55.09 127.9C59.1312 125.68 62.6421 122.61 65.38 118.9C67.9587 121.578 70.917 123.862 74.16 125.68C74.7018 127.594 74.9414 129.582 74.87 131.57C74.87 133.83 74.73 136.75 73.38 138.64C70.72 142.37 63.88 143.08 60.17 145.8C56.3148 148.76 53.6757 153.028 52.75 157.8C51.8492 162.55 52.1937 167.453 53.75 172.03C54.51 174.39 55.61 176.78 57.63 178.21C58.662 178.936 59.8745 179.362 61.1337 179.443C62.3928 179.523 63.6497 179.255 64.7658 178.666C65.8818 178.078 66.8136 177.192 67.4585 176.108C68.1033 175.023 68.436 173.782 68.42 172.52C68.42 169.52 66.42 166.84 66.1 163.85C65.22 155.54 75.27 154.76 80.33 151.28C86.51 147.02 88.85 138.78 88.85 131.58C88.85 131.15 88.85 130.71 88.85 130.27C92.9279 130.669 97.0432 130.412 101.04 129.51C103.61 131.09 106.04 133.09 106.61 136.22C107.33 140.41 103.85 144.1 102.43 147.82C100.673 152.142 100.457 156.938 101.82 161.4C103.68 167.24 107.74 172.17 112.48 176.06C114.73 177.91 117.37 179.62 120.28 179.56C124.01 179.48 127.36 175.82 126.83 172.13C126.41 169.13 123.96 166.95 121.57 165.13C119.18 163.31 116.57 161.47 115.51 158.66C113.46 153.2 117.84 148.36 119.61 143.54C121.98 137.09 120.4 130.07 116.33 124.68C115.95 124.17 115.5 123.54 115.09 123.07C116.185 122.249 117.237 121.371 118.24 120.44C119.906 118.913 121.432 117.239 122.8 115.44C127.44 114.44 133.18 115.33 134.66 120.44C136.18 125.75 136.76 131.31 140.66 135.56C147.13 142.63 158.44 144.33 167.48 142.67C171.97 141.84 174.63 136.23 172.42 132.17C170.42 128.52 165.31 129.05 161.82 129.17C158.06 129.34 151.26 128.57 149.99 124.17C147.79 116.59 146.81 109.33 139.58 104.69C137.326 103.265 134.838 102.249 132.23 101.69C131.309 101.483 130.377 101.323 129.44 101.21C129.871 99.3308 130.162 97.4222 130.31 95.5C130.39 94.5 130.42 93.5 130.42 92.59C130.42 91.68 130.42 90.59 130.31 89.59C132.47 86.88 135.85 83.91 139.59 84.59C143.33 85.27 146.24 88.51 149.46 90.45C151.787 91.861 154.384 92.768 157.083 93.1125C159.782 93.457 162.523 93.2313 165.13 92.45L165.31 92.39C171.785 90.4063 177.52 86.5342 181.78 81.27C182.941 79.8337 183.488 77.9966 183.301 76.159C183.113 74.3215 182.207 72.6325 180.78 71.46L180.66 71.54ZM116.31 94.47C115.849 100.452 113.149 106.04 108.748 110.119C104.347 114.197 98.5699 116.465 92.57 116.47L90.72 116.4C84.7378 115.935 79.1508 113.231 75.0732 108.829C70.9956 104.427 68.7271 98.6503 68.72 92.65L68.79 90.81C69.253 84.8286 71.9542 79.2417 76.3545 75.1639C80.7548 71.0862 86.5307 68.8173 92.53 68.81L94.38 68.88C100.363 69.3432 105.951 72.0457 110.029 76.4481C114.108 80.8506 116.375 86.629 116.38 92.63L116.31 94.47Z" fill="black"/>
<path d="M99.38 250.82H85.49V303.97H99.38V250.82Z" fill="black"/>
<path d="M183.26 227.18H169.37V303.97H183.26V227.18Z" fill="black"/>
<path d="M141.32 227.18H127.43V303.97H141.32V227.18Z" fill="black"/>
<path d="M241.18 305.13C238.111 305.174 235.065 304.594 232.227 303.426C229.389 302.257 226.818 300.523 224.67 298.33V304H211.3V227.18H225.3V255.88C229.592 251.83 235.29 249.607 241.19 249.68C255.4 249.68 266.97 261.68 266.97 277.45C266.97 293.22 255.39 305.13 241.18 305.13ZM239.18 262.3C231.5 262.3 225.29 269.12 225.29 277.58C225.29 285.84 231.5 292.58 239.18 292.58C246.86 292.58 253.07 286.07 253.07 277.58C253.07 268.88 246.86 262.27 239.18 262.27V262.3Z" fill="black"/>
<path d="M331.92 275.59H318.04V272.9C318.04 269.81 317.04 262.38 307.93 262.38C306.536 262.333 305.147 262.572 303.849 263.084C302.551 263.596 301.372 264.369 300.386 265.356C299.399 266.342 298.626 267.521 298.114 268.819C297.602 270.117 297.363 271.506 297.41 272.9V303.97H283.52V250.82H296.78V255.98C298.486 253.926 300.627 252.277 303.048 251.153C305.469 250.029 308.11 249.457 310.78 249.48C323.51 249.48 331.93 258.87 331.93 272.9L331.92 275.59Z" fill="black"/>
<path d="M467.83 301.49C467.83 319.15 456.25 330.18 438.89 330.18C425.95 330.18 415.53 322.86 413.43 311.61H428.69C430.48 315.84 435.94 317.49 439.69 317.49C449.48 317.49 453.9 311.19 453.9 301.7V299.13C449.565 303.18 443.832 305.397 437.9 305.32C423.79 305.32 412.11 293.32 412.11 277.66C412.11 262 423.79 249.9 437.9 249.9C440.986 249.856 444.05 250.436 446.906 251.607C449.762 252.777 452.352 254.513 454.52 256.71V251.03H467.78L467.83 301.49ZM440.05 262.49C432.37 262.49 426.17 269.1 426.17 277.77C426.17 286.23 432.37 292.77 440.05 292.77C447.73 292.77 453.94 286.06 453.94 277.77C453.94 269.29 447.73 262.48 440.05 262.48V262.49Z" fill="black"/>
<path d="M540.54 301.49C540.54 319.15 528.97 330.18 511.61 330.18C498.67 330.18 488.25 322.86 486.14 311.61H501.4C503.19 315.84 508.66 317.49 512.45 317.49C522.24 317.49 526.65 311.19 526.65 301.7V299.13C522.315 303.18 516.582 305.397 510.65 305.32C496.55 305.32 484.87 293.32 484.87 277.66C484.87 262 496.55 249.9 510.65 249.9C513.732 249.858 516.791 250.439 519.643 251.608C522.496 252.776 525.083 254.508 527.25 256.7V251.03H540.5L540.54 301.49ZM512.76 262.49C505.09 262.49 498.87 269.1 498.87 277.77C498.87 286.23 505.09 292.77 512.76 292.77C520.43 292.77 526.65 286.06 526.65 277.77C526.65 269.29 520.45 262.48 512.76 262.48V262.49Z" fill="black"/>
<path d="M84.83 234.63C84.8002 236.139 85.2205 237.623 86.0373 238.892C86.8541 240.162 88.0303 241.159 89.4162 241.758C90.802 242.356 92.3346 242.528 93.8186 242.252C95.3026 241.976 96.6708 241.264 97.7487 240.207C98.8266 239.151 99.5655 237.797 99.8711 236.319C100.177 234.841 100.035 233.305 99.4647 231.907C98.8941 230.51 97.9204 229.314 96.6675 228.472C95.4146 227.63 93.9395 227.18 92.43 227.18C90.4346 227.161 88.5134 227.935 87.0884 229.332C85.6634 230.729 84.8511 232.635 84.83 234.63V234.63Z" fill="black"/>
<path d="M42.2 303.97H27.26L0 250.82H15.36L34.73 288.44L53.99 250.82H69.15L42.2 303.97Z" fill="black"/>
<path d="M369.89 330.61H355.68L365 305.73L379.92 304.53L369.89 330.61Z" fill="black"/>
<path d="M363.4 309.9L365 305.82L343.75 250.93H358.69L372.15 289.9L385.29 250.93H400.35L376 314.72" fill="black"/>
</g>
<defs>
<clipPath id="clip0_46_15">
<rect width="540.54" height="330.61" fill="white"/>
</clipPath>
</defs>
</svg>
