<svg width="241" height="241" viewBox="0 0 241 241" fill="none" xmlns="http://www.w3.org/2000/svg">
<path d="M0 16.5517C0 7.41046 7.41046 0 16.5517 0H223.448C232.59 0 240 7.41046 240 16.5517C240 25.693 232.59 33.1034 223.448 33.1034H16.5517C7.41047 33.1034 0 25.693 0 16.5517Z" fill="black"/>
<path d="M0 119.552C0 110.41 7.41046 103 16.5517 103H223.448C232.59 103 240 110.41 240 119.552C240 128.693 232.59 136.103 223.448 136.103H16.5517C7.41047 136.103 0 128.693 0 119.552Z" fill="black"/>
<path d="M0 222.552C0 213.41 7.41046 206 16.5517 206H223.448C232.59 206 240 213.41 240 222.552C240 231.693 232.59 239.103 223.448 239.103H16.5517C7.41047 239.103 0 231.693 0 222.552Z" fill="black"/>
</svg>
