<svg width="240" height="240" viewBox="0 0 240 240" fill="none" xmlns="http://www.w3.org/2000/svg">
<path d="M28.3379 4.86201C21.8552 -1.62067 11.3447 -1.62067 4.86202 4.86201C-1.62066 11.3447 -1.62068 21.8552 4.862 28.3379L96.5242 120L4.86248 211.662C-1.6202 218.145 -1.6202 228.655 4.86249 235.138C11.3452 241.62 21.8557 241.62 28.3384 235.138L120 143.476L211.662 235.138C218.145 241.62 228.655 241.62 235.138 235.138C241.62 228.655 241.62 218.145 235.138 211.662L143.476 120L235.138 28.3379C241.621 21.8552 241.621 11.3447 235.138 4.86202C228.656 -1.62066 218.145 -1.62068 211.662 4.86201L120 96.5242L28.3379 4.86201Z" fill="black"/>
</svg>
